# xmcd
#
# Track frame offsets:
#	150
#	16126
#	28334
#	43892
#	56511
#	72682
#	95729
#	114011
#	129660
#	140809
#	151052
#	164855
#
# Disc length: 2500 seconds
#
# Revision: 0
# Processed by: cddbd v1.5.2PL0 Copyright (c) Steve Scherf et al.
# Submitted via: dBpowerAMP V4.0
#
DISCID=b009c20c
DTITLE=Jean-Jacques Boitard - En Avant Mars !
DYEAR=2008
DGENRE=Acoustic
TTITLE0=C'est un été Pourri !
TTITLE1=La Balade du Gaulois Antique
TTITLE2=La Fille aux Yeux Pastel
TTITLE3=Le Loup du Lavandou
TTITLE4=Il aima Pâques
TTITLE5=Paradis Perdu
TTITLE6=Les Lundis qui Pleurent
TTITLE7=Le Rimarien
TTITLE8=La Ballade des Parents Indignes
TTITLE9=Ca c'est Sûr !
TTITLE10=Et Pourtant !
TTITLE11=Le Petit Bougnat
EXTD=Jean-Jacques Boitard\nwww.boitarderie.com\njeanjacques.boitard@wanadoo.fr\nStudio Meyes La Ciotat\nwww.studiomeyes.com
EXTT0=
EXTT1=
EXTT2=
EXTT3=
EXTT4=
EXTT5=
EXTT6=
EXTT7=
EXTT8=
EXTT9=
EXTT10=
EXTT11=
PLAYORDER=
